<svg width="229" height="62" viewBox="0 0 229 62" fill="none" xmlns="http://www.w3.org/2000/svg">
<path d="M6.36648 36.5087C2.37394 20.3066 12.625 4.86058 29.1347 2.59229C29.2426 2.59229 29.3505 2.59229 29.1347 2.7003C18.6678 10.2613 5.71904 22.3588 6.36648 36.5087C6.36648 36.6167 6.36648 36.6167 6.36648 36.5087Z" fill="url(#paint0_linear_11208_20168)"/>
<path d="M9.17204 42.7734C9.27995 42.8815 9.27995 42.8815 9.17204 42.7734C11.1144 26.8954 30.2138 12.4215 43.3784 4.86055C41.5439 4.10445 39.6016 3.45637 37.6593 3.13232C25.6817 10.1532 3.3451 26.1393 9.17204 42.7734Z" fill="url(#paint1_linear_11208_20168)"/>
<path d="M47.6946 7.12891C47.5867 7.12891 47.5867 7.12891 47.4788 7.23692C32.1561 15.338 17.265 28.2996 11.4381 45.1498C8.63251 53.1428 11.4381 60.2718 21.2576 59.1916C21.3655 59.1916 21.3655 59.1916 21.2576 59.1916C7.01391 57.4634 17.9125 40.2892 22.1208 35.2125C30.3217 25.1672 40.4649 16.9582 52.1188 11.0174C50.716 9.50521 49.3132 8.20905 47.6946 7.12891Z" fill="url(#paint2_linear_11208_20168)"/>
<path d="M59.4564 29.272C59.4564 24.8434 58.3773 20.7389 56.5429 17.0664L56.0034 17.2824C55.7876 17.3904 55.6797 17.3904 55.5718 17.4985L55.0322 17.8225C45.9681 22.2511 37.8751 28.0838 30.7533 35.2127C28.0557 37.9131 22.4445 44.3939 24.171 48.7145C24.9264 50.6587 26.6529 51.4148 28.7031 51.6309C36.5803 52.603 46.6155 45.042 51.4713 39.4253C52.5504 38.1291 54.7085 35.1047 52.3346 34.3486C47.9104 32.9445 38.9542 37.265 35.0696 39.5333C34.9617 39.6413 34.9617 39.6413 35.0696 39.5333C39.8174 36.0769 45.8602 33.0525 51.6871 32.4044C58.1615 31.6483 56.7587 37.481 54.3848 40.6134C49.6369 47.0943 43.4863 52.1709 36.1486 55.9514C36.0407 56.0594 36.0407 56.0594 36.1486 56.0594C40.357 55.5194 44.1337 54.0072 47.4788 51.7389C48.6658 50.9828 49.7448 50.1187 50.716 49.1465C56.1113 44.1779 59.4564 37.157 59.4564 29.272Z" fill="url(#paint3_linear_11208_20168)"/>
<path d="M79.9586 19.1183C78.6637 17.8221 76.7214 17.174 74.9949 17.174C70.7866 17.174 68.3047 20.3064 68.3047 24.4109C68.3047 27.6514 70.1391 30.8918 74.9949 30.8918C76.5056 30.8918 77.9084 30.5677 79.4191 29.3796V25.9231H74.4554V22.6827H82.7642V30.8918C80.8218 33.0521 78.4479 34.4562 74.9949 34.4562C67.6573 34.4562 64.6359 29.5956 64.6359 24.519C64.6359 19.0103 68.0889 13.9336 74.9949 13.9336C77.5847 13.9336 80.2823 14.9057 82.2246 16.958L79.9586 19.1183Z" fill="#191919"/>
<path d="M102.403 30.1359H92.2599L90.6413 33.8083H86.6488L95.3892 14.2578H99.3817L108.122 33.8083H104.13L102.403 30.1359ZM97.3315 18.3623L93.6627 26.6794H100.892L97.3315 18.3623Z" fill="#191919"/>
<path d="M114.489 17.6062H108.338V14.2578C113.949 14.2578 118.697 14.2578 124.416 14.2578V17.6062H118.265V33.8083H114.597V17.6062H114.489Z" fill="#191919"/>
<path d="M143.947 33.8083H129.38C129.38 27.3275 129.38 20.7386 129.38 14.2578H143.947V17.8223H133.049V22.3589H143.623V25.8153H133.049V30.2439H143.947V33.8083Z" fill="#191919"/>
<path d="M170.924 33.8083H167.794L165.42 27.6515L163.37 21.4947L161.32 27.7596L158.946 33.8083H155.817L148.695 14.2578H152.795L157.435 28.2996L162.183 14.2578H164.557L169.413 28.2996L173.837 14.2578H177.938L170.924 33.8083Z" fill="#191919"/>
<path d="M196.929 30.1359H186.786L185.167 33.8083H181.175L189.915 14.2578H193.908L202.648 33.8083H198.548L196.929 30.1359ZM191.857 18.3623L188.189 26.6794H195.418L191.857 18.3623Z" fill="#191919"/>
<path d="M212.144 22.3589L217.323 14.2578H221.748V14.4738L213.978 25.8153V33.9164H210.309V25.8153L202.864 14.4738V14.2578H207.288L212.144 22.3589Z" fill="#191919"/>
<path d="M71.1103 46.9861H65.9308C65.9308 44.7178 65.9308 42.3415 65.9308 40.0732H71.1103V41.3694H67.2256V42.9896H71.0024V44.1778H67.2256V45.69H71.1103V46.9861Z" fill="#191919"/>
<path d="M80.1744 40.1812H81.5772V40.2892L79.2033 43.6376L81.5772 47.094H80.1744L78.4479 44.5017L76.7214 47.094H75.3186L77.6926 43.6376L75.3186 40.2892V40.1812H76.7214L78.4479 42.7735L80.1744 40.1812Z" fill="#191919"/>
<path d="M90.965 46.9861H85.7855C85.7855 44.7178 85.7855 42.3415 85.7855 40.0732H90.965V41.3694H87.0804V42.9896H90.8571V44.1778H87.0804V45.69H90.965V46.9861Z" fill="#191919"/>
<path d="M101.54 46.1217C100.785 46.7698 99.9213 47.0939 98.9501 47.0939C96.3604 47.0939 95.2813 45.3656 95.2813 43.5294C95.2813 41.6932 96.4683 39.8569 98.9501 39.8569C99.9213 39.8569 100.785 40.181 101.432 40.9371L100.569 41.8012C100.137 41.3691 99.4896 41.1531 98.9501 41.1531C97.3315 41.1531 96.5762 42.3413 96.5762 43.5294C96.5762 44.7176 97.2236 45.9057 98.9501 45.9057C99.5975 45.9057 100.245 45.6897 100.677 45.2576L101.54 46.1217Z" fill="#191919"/>
<path d="M111.683 40.1812V44.1777C111.683 46.2299 110.388 47.3101 108.662 47.3101C107.043 47.3101 105.64 46.3379 105.64 44.1777V40.1812H106.935V44.1777C106.935 45.3658 107.691 46.1219 108.662 46.1219C109.741 46.1219 110.388 45.3658 110.388 44.1777V40.1812H111.683Z" fill="#191919"/>
<path d="M118.157 41.3693H115.999V40.1812C117.942 40.1812 119.668 40.1812 121.61 40.1812V41.3693H119.452V47.094H118.157V41.3693Z" fill="#191919"/>
<path d="M125.819 46.9861V40.0732H127.114V46.9861H125.819Z" fill="#191919"/>
<path d="M135.53 47.094H134.235L131.322 40.1812H132.725L134.775 45.5818L136.825 40.1812H138.228L135.53 47.094Z" fill="#191919"/>
<path d="M147.724 46.9861H142.544C142.544 44.7178 142.544 42.3415 142.544 40.0732H147.724V41.3694H143.839V42.9896H147.616V44.1778H143.839V45.69H147.724V46.9861Z" fill="#191919"/>
<path d="M161.86 41.8013C161.644 41.3692 160.996 41.0452 160.241 41.0452C159.27 41.0452 158.838 41.4772 158.838 41.9093C158.838 42.5574 159.593 42.6654 160.349 42.7734C161.752 42.9894 163.154 43.3135 163.154 44.9337C163.154 46.4459 161.752 47.094 160.241 47.094C158.838 47.094 157.759 46.6619 157.22 45.3657L158.299 44.8257C158.622 45.5818 159.378 45.9058 160.241 45.9058C161.104 45.9058 161.86 45.5818 161.86 44.8257C161.86 44.1776 161.212 43.9616 160.241 43.8536C158.838 43.6375 157.543 43.3135 157.543 41.8013C157.543 40.3971 158.946 39.857 160.241 39.749C161.32 39.749 162.399 40.0731 162.939 41.1532L161.86 41.8013Z" fill="#191919"/>
<path d="M172.65 46.9861H167.471C167.471 44.7178 167.471 42.3415 167.471 40.0732H172.65V41.3694H168.766V42.9896H172.542V44.1778H168.766V45.69H172.65V46.9861Z" fill="#191919"/>
<path d="M182.038 45.69H178.477L177.938 46.9861H176.535L179.664 40.0732H181.067L184.196 46.9861H182.793L182.038 45.69ZM180.204 41.5854L178.909 44.5018H181.498L180.204 41.5854Z" fill="#191919"/>
<path d="M194.123 46.9861H192.613L190.563 44.7178H189.268V46.9861H187.973V40.0732C189.052 40.0732 190.131 40.0732 191.21 40.0732C192.829 40.0732 193.692 41.1534 193.692 42.3415C193.692 43.3137 193.26 44.2858 191.965 44.5018L194.123 46.9861ZM189.376 41.3694V43.5297H191.318C192.181 43.5297 192.505 42.9896 192.505 42.4495C192.505 41.9095 192.181 41.3694 191.318 41.3694H189.376Z" fill="#191919"/>
<path d="M204.159 46.1217C203.403 46.7698 202.54 47.0939 201.569 47.0939C198.979 47.0939 197.9 45.3656 197.9 43.5294C197.9 41.6932 199.087 39.8569 201.569 39.8569C202.54 39.8569 203.403 40.181 204.051 40.9371L203.188 41.8012C202.756 41.3691 202.109 41.1531 201.569 41.1531C199.95 41.1531 199.195 42.3413 199.195 43.5294C199.195 44.7176 199.843 45.9057 201.569 45.9057C202.216 45.9057 202.864 45.6897 203.296 45.2576L204.159 46.1217Z" fill="#191919"/>
<path d="M213.007 46.986V44.2857H209.662V47.094H208.367V40.1812H209.662V43.0975H213.007V40.1812H214.302V47.094H213.007V46.986Z" fill="#191919"/>
<defs>
<linearGradient id="paint0_linear_11208_20168" x1="5.48208" y1="19.5769" x2="29.2686" y2="19.5769" gradientUnits="userSpaceOnUse">
<stop stop-color="#EB8023"/>
<stop offset="1" stop-color="#FFC310"/>
</linearGradient>
<linearGradient id="paint1_linear_11208_20168" x1="8.25365" y1="22.9551" x2="43.4406" y2="22.9551" gradientUnits="userSpaceOnUse">
<stop stop-color="#009D4F"/>
<stop offset="1" stop-color="#9DC53B"/>
</linearGradient>
<linearGradient id="paint2_linear_11208_20168" x1="50.794" y1="10.6257" x2="14.4063" y2="51.1402" gradientUnits="userSpaceOnUse">
<stop stop-color="#20A3DC"/>
<stop offset="0.85" stop-color="#0063A8"/>
</linearGradient>
<linearGradient id="paint3_linear_11208_20168" x1="60.8077" y1="19.7683" x2="24.457" y2="60.2414" gradientUnits="userSpaceOnUse">
<stop stop-color="#20A3DC"/>
<stop offset="0.85" stop-color="#0063A8"/>
</linearGradient>
</defs>
</svg>
